<svg xmlns="http://www.w3.org/2000/svg" viewBox="0 0 1200 630" shape-rendering="crispEdges">
  <!-- wall -->
  <rect width="1200" height="630" fill="#3d2817"/>
  <!-- wood planks -->
  <rect y="0" width="1200" height="6" fill="#4d3520"/>
  <rect y="84" width="1200" height="6" fill="#4d3520"/>
  <rect y="168" width="1200" height="6" fill="#4d3520"/>
  <rect y="252" width="1200" height="6" fill="#4d3520"/>
  <rect y="336" width="1200" height="6" fill="#4d3520"/>
  <rect y="420" width="1200" height="6" fill="#4d3520"/>
  <rect y="504" width="1200" height="6" fill="#4d3520"/>
  <!-- floor -->
  <rect y="510" width="1200" height="120" fill="#2b1810"/>
  <!-- window -->
  <rect x="80" y="100" width="200" height="220" fill="#7ec8e3"/>
  <rect x="80" y="100" width="200" height="20" fill="#5e6472"/>
  <rect x="170" y="100" width="20" height="220" fill="#5e6472"/>
  <rect x="80" y="200" width="200" height="20" fill="#5e6472"/>
  <!-- sun -->
  <rect x="220" y="130" width="30" height="30" fill="#ffd166"/>
  <!-- mountains in window -->
  <polygon points="80,260 130,180 180,260" fill="#5e6472"/>
  <polygon points="180,260 220,200 260,260" fill="#4a5061"/>
  <!-- snow caps -->
  <polygon points="120,200 130,180 140,200" fill="#f5ecd9"/>
  <!-- desk + monitor -->
  <rect x="380" y="380" width="280" height="160" fill="#5a3a22"/>
  <rect x="430" y="240" width="180" height="140" fill="#1a1a2e"/>
  <rect x="440" y="250" width="160" height="110" fill="#0a1a0a"/>
  <!-- code on screen -->
  <rect x="450" y="260" width="60" height="6" fill="#7fdb7f"/>
  <rect x="450" y="276" width="80" height="6" fill="#a3e635"/>
  <rect x="460" y="292" width="100" height="6" fill="#7fdb7f"/>
  <rect x="450" y="308" width="50" height="6" fill="#fde047"/>
  <rect x="460" y="324" width="120" height="6" fill="#7fdb7f"/>
  <rect x="450" y="340" width="40" height="6" fill="#7fdb7f"/>
  <!-- monitor stand -->
  <rect x="510" y="380" width="20" height="20" fill="#1a1a2e"/>
  <!-- shelf -->
  <rect x="760" y="200" width="320" height="14" fill="#5a3a22"/>
  <!-- books -->
  <rect x="780" y="160" width="20" height="40" fill="#dc2626"/>
  <rect x="800" y="155" width="18" height="45" fill="#16a34a"/>
  <rect x="818" y="165" width="22" height="35" fill="#1e3a8a"/>
  <rect x="840" y="158" width="20" height="42" fill="#facc15"/>
  <rect x="860" y="162" width="16" height="38" fill="#7c3aed"/>
  <!-- trophy -->
  <rect x="900" y="170" width="20" height="6" fill="#fbbf24"/>
  <rect x="906" y="176" width="8" height="14" fill="#fbbf24"/>
  <rect x="900" y="190" width="20" height="4" fill="#fbbf24"/>
  <!-- text -->
  <text x="600" y="580" font-family="monospace" font-size="40" font-weight="bold" fill="#f5ecd9" text-anchor="middle">JOSHUA AZZE DISTEL</text>
  <text x="600" y="610" font-family="monospace" font-size="18" fill="#fbbf24" text-anchor="middle">computer engineering · ibmec bh</text>
</svg>
